<svg xmlns="http://www.w3.org/2000/svg" viewBox="0 0 659.44 118.78"><defs><style>.cls-1{fill:#ffcd20;}.cls-2{fill:#fff;}</style></defs><title>logo honeybee</title><g id="Layer_2" data-name="Layer 2"><g id="Слой_1" data-name="Слой 1"><path class="cls-1" d="M76.87,40.24h-.59l-5.92.12.16-5.88,0-.68A33,33,0,0,0,36.73,0l-.67,0a35.37,35.37,0,0,0-15.21,4.2A36.33,36.33,0,0,0,4.5,22.32,35.37,35.37,0,0,0,1.81,34.93l-.06,2.33L1.33,53.57.76,75.34.45,87.12,0,104.54a6,6,0,0,0,6.16,6.14l17.42-.43L34.34,110l22.84-.57,14.72-.36,3.86-.1a35.29,35.29,0,0,0,12.68-2.7,36.25,36.25,0,0,0,18-16.39,35.38,35.38,0,0,0,4.17-15.24c0-.19,0-.38,0-.58A32.93,32.93,0,0,0,76.87,40.24Zm25.59,33.09A27.23,27.23,0,0,1,76.25,99.55l-37.74.95-28.77.72,1.72-66.55A27.24,27.24,0,0,1,37.68,8.47a24.14,24.14,0,0,1,17.77,6.86,24,24,0,0,1,6.87,17.78L62,46a2.94,2.94,0,0,0,.87,2.14,3,3,0,0,0,2.16.87l12.81-.37a23.49,23.49,0,0,1,24.65,24.64Z"/><path class="cls-1" d="M510,47.75A30.36,30.36,0,0,0,491.93,41a28.32,28.32,0,0,0-13.82,2.75,29.62,29.62,0,0,0-10.88,9.15L466,54.57l-.2-.07V25.42H458.4v76h7.45V89.69l.24,0c.28.37.54.77.86,1.12a64.57,64.57,0,0,0,5,5.35c7.29,6.38,15.82,8.19,25.19,6.36a29.4,29.4,0,0,0,15.27-8.16,31.53,31.53,0,0,0,7.08-33.79A30.41,30.41,0,0,0,510,47.75ZM490,96.27a24.19,24.19,0,0,1,0-48.38,24.19,24.19,0,0,1,0,48.38Z"/><path class="cls-1" d="M564.75,41.56a31.06,31.06,0,0,0-12.25,60.89C568.89,106,582.6,95.8,587,84.69c-2.56,0-5.09,0-7.61,0-.26,0-.55.34-.76.58A51.84,51.84,0,0,1,574,90.47a22.26,22.26,0,0,1-22.09,4.7c-7.9-2.39-13-7.88-15.64-15.6-.45-1.29-.68-2.65-1-4.11h54.49C591.78,60.48,581.56,44.73,564.75,41.56ZM535.38,68.5a23.71,23.71,0,0,1,47,0Z"/><path class="cls-1" d="M634.35,41.58c-16.83-3.35-33.47,7.78-36.64,24.46a31.25,31.25,0,0,0,26.82,36.87c15.54,2,28.15-8.19,31.86-18.21-2.39,0-4.77,0-7.15,0a1.43,1.43,0,0,0-1.24.65,41.78,41.78,0,0,1-4.5,5.11,22.35,22.35,0,0,1-22.17,4.71c-7-2.1-11.81-6.79-14.77-13.42a20.91,20.91,0,0,1-1.75-6.25h54.35C661.29,61.38,651.74,45,634.35,41.58ZM604.82,68.49a23.72,23.72,0,0,1,47,0Z"/><path class="cls-2" d="M17.59,34.84v.55L75.63,93.45h.46a20.65,20.65,0,0,0,13.41-5.52L23.06,21.47A20.7,20.7,0,0,0,17.59,34.84Z"/><path class="cls-2" d="M16.7,68.95,42,94.29,61,93.82,17.19,50Z"/><polygon class="cls-2" points="16.03 94.95 27.4 94.66 16.32 83.59 16.03 94.95"/><path class="cls-2" d="M56.21,32.95A17.4,17.4,0,0,0,38.32,14.58h-.49a20.08,20.08,0,0,0-5.66,1L56,39.42Z"/><path class="cls-2" d="M78,54.8,71.6,55,95.39,78.77a20.15,20.15,0,0,0,1-5.6A17.38,17.38,0,0,0,78,54.8Z"/><path class="cls-2" d="M184.84,58.12c-1.18-5.92-4.13-10.76-9.45-13.83A24,24,0,0,0,156,42a21.65,21.65,0,0,0-13.24,10.28,4.31,4.31,0,0,1-.41.47V25.31h-7.48v76.12h7.49v-1.31q0-17.08,0-34.16a15.16,15.16,0,0,1,3.07-9.59c4.61-6,10.7-8.91,18.26-8.39a14.58,14.58,0,0,1,11.69,6.68,17.62,17.62,0,0,1,2.71,10q0,17.79,0,35.58v1.1h7.51v-1c0-11.83,0-23.66,0-35.49A36,36,0,0,0,184.84,58.12Z"/><path class="cls-2" d="M366.82,41.56a31.07,31.07,0,0,0-12.15,60.94c16.83,3.4,30.23-7.16,34.37-17.81-2.56,0-5.09,0-7.61,0-.26,0-.55.35-.76.59a57.13,57.13,0,0,1-4.52,5.1,22,22,0,0,1-19.69,5.38c-9.12-1.82-15-7.54-18.11-16.24-.45-1.28-.68-2.65-1-4.14h54.51C393.86,60.4,383.58,44.7,366.82,41.56ZM337.46,68.5a23.71,23.71,0,0,1,47,0Z"/><path class="cls-2" d="M249.5,50a31.27,31.27,0,0,0-26.57-8.71,29.91,29.91,0,0,0-15.82,6.83c-7.94,6.65-11.9,15.17-11.42,25.63a28.91,28.91,0,0,0,5.43,15.76,31.41,31.41,0,0,0,25,13.62,33.29,33.29,0,0,0,15-3.15,30.9,30.9,0,0,0,17.44-32.48A29.45,29.45,0,0,0,249.5,50ZM227.19,96.24a24.17,24.17,0,1,1,24-24.21A24.06,24.06,0,0,1,227.19,96.24Z"/><path class="cls-2" d="M319,58C317.75,52,314.61,47.1,309.09,44a23.75,23.75,0,0,0-14.49-2.86c-7.65.84-13.7,4.42-17.71,11.14a6.21,6.21,0,0,1-.42.51v-10H269v58.62h7.44v-1.31q0-17.08,0-34.16a15.1,15.1,0,0,1,3.11-9.57c4.63-6,10.73-8.87,18.29-8.33a14.57,14.57,0,0,1,11.61,6.65,17.72,17.72,0,0,1,2.72,10.12q0,17.7,0,35.39v1.23h7.51v-1.06c0-11.8,0-23.6,0-35.39A35.68,35.68,0,0,0,319,58Z"/><path class="cls-2" d="M443.55,42.67a1.24,1.24,0,0,0-1.39.93q-8.87,21.59-17.78,43.16c-.5,1.21-1,2.41-1.59,3.8-.23-.49-.38-.79-.5-1.1L411.72,63.84q-4.2-10.17-8.41-20.34c-.14-.33-.55-.77-.85-.78-2.5-.06-5,0-7.64,0,.12.34.19.55.27.75l3.8,9.1Q408.7,76,418.49,99.46a2,2,0,0,1,0,1.41c-1.49,3.59-3,7.16-4.56,10.74l-3,7.15c2.53,0,4.93,0,7.33,0a1,1,0,0,0,1.1-.75q14.8-35.5,29.63-71c.59-1.41,1.16-2.83,1.78-4.35C448.24,42.69,445.89,42.72,443.55,42.67Z"/></g></g></svg>